<?xml version="1.0" encoding="iso-8859-1"?>
<!-- Generator: Adobe Illustrator 18.0.0, SVG Export Plug-In . SVG Version: 6.00 Build 0)  -->
<!DOCTYPE svg PUBLIC "-//W3C//DTD SVG 1.1//EN" "http://www.w3.org/Graphics/SVG/1.1/DTD/svg11.dtd">
<svg version="1.1" id="Capa_1" xmlns="http://www.w3.org/2000/svg" xmlns:xlink="http://www.w3.org/1999/xlink" x="0px" y="0px"
	 viewBox="0 0 512 512" style="enable-background:new 0 0 512 512;" xml:space="preserve">
<g>
	<path d="M480,128c0-17.672-14.328-32-32-32h-32c-17.672,0-32,14.328-32,32h-16l-23.156-46.313
		C339.422,70.848,328.344,64,316.219,64H195.781c-12.125,0-23.203,6.848-28.625,17.688L144,128H32c-17.672,0-32,14.328-32,32v256
		c0,17.672,14.328,32,32,32h448c17.672,0,32-14.328,32-32V160C512,142.328,497.672,128,480,128z M256,400
		c-61.859,0-112-50.145-112-112s50.141-112,112-112s112,50.145,112,112S317.859,400,256,400z"/>
	<circle cx="256" cy="288" r="64"/>
</g>
<g>
</g>
<g>
</g>
<g>
</g>
<g>
</g>
<g>
</g>
<g>
</g>
<g>
</g>
<g>
</g>
<g>
</g>
<g>
</g>
<g>
</g>
<g>
</g>
<g>
</g>
<g>
</g>
<g>
</g>
</svg>
